<svg width="24" height="24" viewBox="0 0 24 24" fill="none" xmlns="http://www.w3.org/2000/svg">
<path d="M23.7113 8.60775L19.4249 2.31975C19.1152 1.86516 18.6018 1.59375 18.0515 1.59375H5.9482C5.39789 1.59375 4.88442 1.86516 4.57481 2.31961L0.287902 8.60836C-0.147473 9.24862 -0.0830664 10.1055 0.44048 10.6717L10.7776 21.8679C11.4354 22.5831 12.566 22.5812 13.221 21.8689L23.5588 10.6721C24.063 10.1267 24.1636 9.2729 23.7113 8.60775ZM6.52832 10.3372L10.1913 19.1598L2.04557 10.3372H6.52832ZM13.0136 3L15.881 8.93091H8.11861L10.9859 3H13.0136ZM15.9487 10.3372L11.9998 19.8484L8.05097 10.3372H15.9487V10.3372ZM17.4713 10.3372H21.954L13.8083 19.1598L17.4713 10.3372ZM18.2629 3.1117L22.2297 8.93095H17.443L14.5756 3.00005H18.0515C18.1362 3 18.2152 3.04172 18.2629 3.1117ZM5.73684 3.11156C5.78442 3.04172 5.8634 3.00005 5.94815 3.00005H9.42403L6.55668 8.93095H1.7699L5.73684 3.11156Z" fill="white"/>
</svg>
