<svg width="84" height="84" viewBox="0 0 84 84" fill="none" xmlns="http://www.w3.org/2000/svg">
<path d="M71.3092 2.01562C34.916 31.2914 -21.7554 76.9508 82.1869 51.1667" stroke="#F5F5F5" stroke-linecap="round"/>
<path d="M77.3523 2.41797C51.031 26.5906 4.83437 68.087 82.1868 45.123" stroke="#F5F5F5" stroke-linecap="round"/>
<path d="M81.7838 8.05859C63.3857 24.9794 37.6284 55.3564 81.7838 39.8859" stroke="#F5F5F5" stroke-linecap="round"/>
<path d="M82.1866 21.3516C74.5319 27.3947 59.2226 44.3156 82.1866 33.035" stroke="#F5F5F5" stroke-linecap="round"/>
<path d="M2.01416 59.2242C0.805523 53.8525 6.28467 40.9336 20.1437 32.2314C37.4674 21.3537 40.2875 26.5911 60.8343 2.01562" stroke="#F5F5F5" stroke-linecap="round"/>
<path d="M2.01416 35.4526C27.7983 24.172 66.1522 1.04688 13.2947 2.01378" stroke="#F5F5F5" stroke-linecap="round"/>
<path d="M7.65449 2.41797C23.7696 5.3724 51.5681 10.8784 1.61133 30.2165" stroke="#F5F5F5" stroke-linecap="round"/>
<path d="M1.61133 10.8789C15.712 11.9532 38.6761 12.4904 1.61133 22.1595" stroke="#F5F5F5" stroke-linecap="round"/>
<path d="M81.7839 61.2353C72.3835 61.2353 48.5063 61.6381 39.4818 69.6957C30.4574 77.7532 10.7432 65.1298 1.61133 57.6094" stroke="#F5F5F5" stroke-linecap="round"/>
<path d="M47.9424 81.7822C51.2997 75.0676 54.7913 62.0412 81.7841 66.8758" stroke="#F5F5F5" stroke-linecap="round"/>
<path d="M61.6401 81.7849C62.3116 75.3389 64.4603 64.0583 81.784 72.1158" stroke="#F5F5F5" stroke-linecap="round"/>
<path d="M2.41699 70.5039C12.0861 70.7725 36.2587 75.3384 14.5033 81.7845" stroke="#F5F5F5" stroke-linecap="round"/>
<path d="M2.01416 76.1445C8.72878 74.9358 24.1724 74.9359 9.26595 81.7847" stroke="#F5F5F5" stroke-linecap="round"/>
<rect x="2" y="2" width="79.7985" height="79.7985" rx="9" stroke="#F5F5F5" stroke-width="4"/>
</svg>
